<?xml version="1.0" encoding="utf-8"?>
<!-- Generator: Adobe Illustrator 22.1.0, SVG Export Plug-In . SVG Version: 6.00 Build 0)  -->
<svg version="1.1" id="Capa_1" xmlns="http://www.w3.org/2000/svg" xmlns:xlink="http://www.w3.org/1999/xlink" x="0px" y="0px"
	 viewBox="0 0 200 200" style="enable-background:new 0 0 200 200;" xml:space="preserve">
<title>a</title>
<path d="M99.5,185.5c-34.5,0.2-63-28.1-63.2-62.8c-0.2-34.5,28.1-62.9,62.9-63c34.7-0.1,63,28,63.1,62.8S134.3,185.4,99.5,185.5
	L99.5,185.5z M156.5,121.4c-1.4-32.2-27.5-57.3-58.3-56.1c-32.4,1.3-57.4,27.8-56,59.4c1.4,31.3,28.1,56.4,58.8,55.1
	C132.6,178.4,157.9,151.9,156.5,121.4L156.5,121.4z"/>
<path d="M178.4,77.4c-2.3,8.2-4.8,16.4-6.8,24.6c-0.7,3.1,1.1,5.2,4.5,6.1c1.2,0.3,2,2,3,3c-1.4,0.6-2.8,1.8-4.2,1.7
	c-5.3-0.4-9.7-5.6-8.2-11c3.1-11.2,7.1-22.1,10.9-33c0.6-1.4,1.6-2.6,2.8-3.4c2.1-1.4,3.9-1,4.3,1.8c0.2,1.5,0.2,3,0.1,4.5v94.9
	c0,1,0.3,2.2-0.1,3c-0.8,1.2-1.7,2.3-2.8,3.4c-0.8-1.1-1.5-2.2-2.1-3.4c-0.2-1.1-0.2-2.3-0.1-3.5c0-27.8,0-55.6,0-83.4v-4.8
	L178.4,77.4z"/>
<path d="M22.9,135.5c0-10.5,0.1-21-0.1-31.5c-0.2-1.8-1.1-3.4-2.5-4.5c-3.6-2.2-5.8-6.2-5.8-10.5c-0.1-7.2-0.1-14.3,0.2-21.5
	c0-1.5,1.4-2.9,2.2-4.4c0.9,1.5,2.5,2.9,2.6,4.5c0.3,7,0.3,14,0.3,21c0,3.8,1.5,6.2,5.4,7.3c1.5,0.7,2.5,2.2,2.7,3.8
	c0.2,22.8,0.2,45.7,0,68.5c0,1.3-1.6,2.7-2.5,4c-0.8-1.4-2.2-2.8-2.3-4.2C22.9,157.2,22.9,146.3,22.9,135.5z"/>
<path d="M35.1,77.9c0,3.6,0.2,7.3-0.1,10.9c-0.1,1.1-1.5,2.1-2.3,3.1c-0.9-1-2.4-2-2.4-3.1C30,81.4,30,74,30.3,66.5
	c0-1.2,1.7-2.3,2.6-3.4c0.7,1.1,2,2.2,2.1,3.3C35.3,70.3,35.1,74.1,35.1,77.9z"/>
<path d="M22.4,77.2c0-3.6-0.2-7.3,0.1-10.9c0.1-1.1,1.6-2.1,2.4-3.2c0.8,1,2.3,2.1,2.3,3.1c0.2,7.6,0.2,15.2,0,22.8
	c0,1-1.3,1.9-2.1,2.9c-0.9-0.9-2.5-1.8-2.6-2.8C22.2,85.2,22.4,81.2,22.4,77.2L22.4,77.2z"/>
<path d="M55,122.6c0-24.5,19.9-44.4,44.4-44.4c24.5,0,44.4,19.9,44.4,44.4c0,24.5-19.9,44.4-44.4,44.4c-0.1,0-0.2,0-0.3,0
	C74.8,166.7,55.1,146.9,55,122.6z M99,161.1c21.3,0.2,38.7-16.9,38.9-38.1S121,84.2,99.8,84s-38.7,16.9-38.9,38.1c0,0.1,0,0.1,0,0.2
	C60.8,143.5,77.8,160.8,99,161.1z"/>
</svg>
