<?xml version="1.0" encoding="utf-8"?>
<!-- Generator: Adobe Illustrator 22.1.0, SVG Export Plug-In . SVG Version: 6.00 Build 0)  -->
<svg version="1.1" id="Capa_1" xmlns="http://www.w3.org/2000/svg" xmlns:xlink="http://www.w3.org/1999/xlink" x="0px" y="0px"
	 viewBox="0 0 43.5 40.4" style="enable-background:new 0 0 43.5 40.4;" xml:space="preserve">
<style type="text/css">
	.st0{fill:#181214;}
	.st1{fill:#FAF8F9;}
	.st2{fill:#393637;}
	.st3{fill:#353435;}
	.st4{fill:#4A4A4A;}
	.st5{fill:#363535;}
	.st6{fill:#3E3F3F;}
	.st7{fill:#403F40;}
	.st8{fill:#333233;}
	.st9{fill:#353434;}
	.st10{fill:#404040;}
	.st11{fill:#605E5F;}
	.st12{fill:#131112;}
	.st13{fill:#292527;}
	.st14{fill:#E9E7E8;}
	.st15{fill:#D7D3D5;}
	.st16{fill:#E8E6E7;}
	.st17{fill:#E0DADC;}
	.st18{fill:#D9D4D6;}
</style>
<title>b</title>
<path class="st0" d="M9.8,31.2c-0.6,0.3-1.2,0.7-1.9,0.4c-0.8-0.3-1.2-1.2-0.8-2c0.1-0.3,0.4-0.6,0.7-0.8c2-1.5,4.1-3,6.2-4.5
	c0.3-0.3,0.7-0.4,0.8-1c0.2-1,1.2-1.7,2.2-1.6c0.6,0,1.2,0,1.8,0c0.4,0,1.1,0.4,1.2-0.5c0.1-0.7-0.2-1-0.8-1.3
	c-3.2-1.3-4.8-4.9-3.5-8.1c0.1-0.3,0.2-0.5,0.4-0.8c1.4-2.4,4.1-3.7,6.9-3.1c3.4,0.7,5.6,4.1,4.8,7.5c-0.4,2-1.8,3.6-3.6,4.4
	c-0.4,0.2-1,0.1-1,0.9c0,0.6,0.1,1,0.8,0.9s1.2,0,1.8,0c1.1-0.2,2.2,0.4,2.6,1.5c0.2,0.4,0.5,0.6,0.9,0.8c2.1,1.6,4.2,3.1,6.4,4.7
	c0.7,0.5,1.2,1.1,0.9,2c-0.3,0.8-1.2,1.3-2,1c-0.7-0.2-1.4-0.6-2-1.1c-0.9-0.7-1.8-1.4-2.8-2.1c-0.6-0.5-0.9-0.5-1,0.4
	s-0.9,0.9-1.6,0.9h-10c-0.4,0-0.9,0-1.3,0c-0.6,0-1.2-0.1-1.3-0.9s-0.5-0.4-0.8-0.2C12.3,29.6,11.3,30.7,9.8,31.2z"/>
<path class="st1" d="M9.8,31.2l4.8-3.6c0.2,1.9,0.2,1.9,2.1,1.9c3.4,0,6.8,0,10.2,0c1.2,0,1.7-0.3,1.5-1.5c0-0.3,0-0.5,0-0.8l6,4.4
	c-0.6,0.2-1.2,0.3-1.8,0.2c-0.7-0.7-1-1.9-2.1-2.1c-0.7,0.9-1.5,1.4-2.7,0.7c-0.3-0.2-0.8,0-1.2,0c-0.6,0.2-1.3,0.5-1.8-0.2
	l-0.5,0.2c-0.6,0.2-1.2,0.1-1.8-0.2c-0.4-0.3-0.9-0.3-1.3,0c-0.5,0.3-1.1,0.4-1.6,0.2c-0.8-0.4-1.5,0.4-2.3,0
	c-0.7-0.5-1.6-0.5-2.2,0c-0.9,0.1-1.8,0-2.7-0.3c0-0.6,0.8-0.1,0.8-0.6c-0.3,0.4-1.1,0.1-1.4,0.8c-0.2,0.7-0.9,1.1-1.6,0.9
	C10,31.3,9.9,31.3,9.8,31.2z"/>
<path class="st2" d="M19.7,30.5c1.5-0.5,3.1-0.5,4.6,0c0,0-0.1,0.1-0.1,0.1L19.7,30.5z"/>
<path class="st3" d="M33.2,26.1c0.7,0,1.4,0.2,2,0.5c0.6,0.4,0.5,1.4,1.2,1.7C35.2,27.8,34.7,26.2,33.2,26.1z"/>
<path class="st4" d="M25.1,21.2c1-1.4,2-0.2,3-0.1C27.1,21.7,26.1,20.1,25.1,21.2z"/>
<path class="st5" d="M9.2,26.4c-1.4,0.1-1,2.1-2.5,2C7.8,28.1,7.5,26.2,9.2,26.4z"/>
<path class="st6" d="M17.3,20.4c-0.9,0.2-1.8,1.2-2.8,0.1C15.5,21.2,16.4,20.1,17.3,20.4z"/>
<path class="st7" d="M30.5,29.8c1.5,0,1.6,1.3,2.1,2.1c-0.2-0.1-0.5-0.2-0.6-0.3C31.8,30.7,31,30.4,30.5,29.8z"/>
<path class="st8" d="M12.5,23.5c0.6-0.6,1.7-0.5,2-1.5C14.5,23.4,13.3,23.3,12.5,23.5z"/>
<path class="st9" d="M28.7,22.1c0.4,0.9,1.5,0.9,2.3,1.5C29.1,23.3,29,23.2,28.7,22.1z"/>
<path class="st10" d="M11.9,30.5c-0.3-0.5,0.1-0.6,0.4-0.6c0.6-0.1,1.1-0.4,1.5-0.8c0,0.8-0.7,1-1.2,1.3
	C12.3,30.2,12,30.3,11.9,30.5z"/>
<path class="st11" d="M19.5,20.7c-0.7,0.7-1.3,0.6-2,0H19.5z"/>
<path class="st12" d="M24.9,30.3c0.6,0.4,1.2,0.2,1.8,0.2C26,31.1,25.3,31.3,24.9,30.3z"/>
<path class="st13" d="M15.2,30.5c0.8-0.7,1.5-0.8,2.2,0C16.7,30.3,15.9,30.3,15.2,30.5z"/>
<path class="st14" d="M21.5,17h-1.4c-0.3,0-0.7-0.1-0.7-0.5s0.3-0.5,0.6-0.5h3c0.3,0,0.6,0.2,0.6,0.5c0,0.3-0.2,0.6-0.5,0.6
	c0,0-0.1,0-0.1,0L21.5,17z"/>
<path class="st15" d="M24.3,12.8c0,0.3-0.2,0.6-0.5,0.6c0,0,0,0-0.1,0c-0.3,0-0.6-0.3-0.6-0.6s0.3-0.6,0.6-0.6l0,0
	C24,12.3,24.2,12.5,24.3,12.8C24.2,12.8,24.3,12.8,24.3,12.8z"/>
<path class="st16" d="M19.7,12.8c0,0.4-0.2,0.6-0.6,0.6c-0.3,0-0.5-0.2-0.5-0.5c0,0,0,0,0,0c0-0.3,0.2-0.6,0.5-0.6c0,0,0.1,0,0.1,0
	C19.6,12.3,19.7,12.5,19.7,12.8z"/>
<path class="st17" d="M24.5,11.7h-1.9C23.4,11.1,24,11.1,24.5,11.7z"/>
<path class="st18" d="M18.2,11.8c0.9-0.7,0.9-0.7,1.8-0.2c-0.1,0.5-0.5,0.1-0.7,0.2C18.9,11.8,18.6,11.8,18.2,11.8z"/>
</svg>
