<?xml version="1.0" encoding="utf-8"?>
<!-- Generator: Adobe Illustrator 22.1.0, SVG Export Plug-In . SVG Version: 6.00 Build 0)  -->
<svg version="1.1" id="Capa_1" xmlns="http://www.w3.org/2000/svg" xmlns:xlink="http://www.w3.org/1999/xlink" x="0px" y="0px"
	 viewBox="0 0 512 512" style="enable-background:new 0 0 512 512;" xml:space="preserve">
<title>c</title>
<path d="M102.3,39c2.7-10.3,6.4-13,17.2-13H137c10.3,0,14.1,3,16.7,13c12.6,0,25.2-0.1,37.9,0c23.7,0.1,43.9,23,36,49.3
	c-3.2,10.6-10.5,18.7-21.3,23.1c-1.4,0.6-3.1,2.3-3.2,3.7c-0.9,10.5-1.4,21.1-2.2,31.6c-1.2,15.9-2.6,31.8-3.9,47.7
	c-0.4,5.3-0.7,10.5-1.1,15.8c-1,16.5-2,32.9-3,49.4c-0.2,2.9-0.8,5.8-1.3,9.1h28.7c-3.8-10.1-2.8-21.3,2.6-30.6
	c7.1-12.7,18.1-19.8,32.2-19.9c64.5-0.4,129-0.4,193.5,0c17.5,0.1,32.6,12.8,36.6,31.1c3.4,15.4-6.5,35.4-21.2,40.7
	c-4.4,1.6-4.7,5.1-5,8.6c-1.5,16.9-6.2,33.4-13.8,48.6c-6.9,14.3-16,27.5-26.8,39.1c-16.6,17.7-37.1,31.4-59.8,39.8
	c-1.6,0.6-3.1,2.9-3.5,4.6c-3.5,15-6.8,30.2-10.2,45.3c-1.3,5.8-6.8,10-13.5,10h-108c-18.7,0-37.3,0-56,0c-8.1,0-13.5-5.4-13.5-13.6
	c0-35.7,0-71.3-0.1-107c0-2.8-0.7-5.5-1.9-7.9c-9-18.4-18.6-36.5-27-55.1c-3.1-6.9-6.7-9-13.9-8.5c-10.8,0.7-21.6,0.2-32.5,0.2
	c-8.5,0-14.2-5.7-14.7-14.3c-0.9-16.8-1.9-33.6-3-50.4c-0.9-13.6-2-27.3-3-40.9s-1.9-27.3-3-40.9c-0.9-10.8-1.9-21.6-3.1-32.4
	c-0.4-1.5-1.4-2.8-2.8-3.4C35.3,105.5,25.5,90.6,26,75.8C26.8,55.2,44,39.1,63.3,39C76.4,39,89.4,39,102.3,39z M434,294.5H148.8
	c1,2.1,1.6,3.6,2.3,5.1c8.5,17,17.1,33.9,25.3,50.9c1.6,3.4,2.5,7.1,2.6,10.9c0.2,31,0.1,62,0.1,93v6.2h143.4
	c3.2-14.3,6.6-28.1,9.3-42.2c1.5-7.7,5.3-12.2,13-14.5c33.7-10.5,58.8-31.7,75.5-62.8C428,326.7,432.7,310.8,434,294.5z
	 M178.1,115.5H77.9c3.6,51.3,7.2,102.2,10.7,153.2h78.8C171,217.7,174.5,166.8,178.1,115.5L178.1,115.5z M352,268.9
	c31.3,0,62.6,0,93.9,0c7.3,0,11.9-2.8,14-8.3c3.4-9.1-3-17.4-13.5-17.4c-38.5,0-76.9,0-115.4,0c-24.5,0-49,0-73.4,0
	c-7.1,0-11.8,3.1-13.7,8.7c-3,9,3.3,17,13.7,17C289.1,268.9,320.5,268.9,352,268.9z M128,64c-20.8,0-41.6,0-62.4,0
	c-8.6,0-14.3,5-14.4,12.5s5.7,13,14.4,13.1c9.3,0.1,18.6,0,28,0c32.1,0,64.2,0,96.4,0c5.1,0,9.6-1.1,12.6-5.6
	c2.8-3.9,3.1-9.1,0.7-13.2c-2.5-4.7-6.6-6.8-11.9-6.8L128,64z"/>
</svg>
