<?xml version="1.0" encoding="utf-8"?>
<!-- Generator: Adobe Illustrator 22.1.0, SVG Export Plug-In . SVG Version: 6.00 Build 0)  -->
<svg version="1.1" id="Capa_1" xmlns="http://www.w3.org/2000/svg" xmlns:xlink="http://www.w3.org/1999/xlink" x="0px" y="0px"
	 viewBox="0 0 500 500" style="enable-background:new 0 0 500 500;" xml:space="preserve">
<title>d</title>
<path d="M122.8,222.7c-8,15.1-12.5,31-15.7,47.3c-1.5,7.3-2.4,14.8-3.6,22.2c-1.3,8.1-5.7,13.8-13.8,16c-7.6,2.1-14.2,0.1-19.5-5.6
	c-3.7-3.8-5.4-9.1-4.7-14.3c5.5-45.9,18.5-88.9,47.8-125.7c8-10,16.3-20,29-24.5c4.5-1.7,9.2-2.6,14-2.8c17.5-0.3,35-0.2,52.5-0.1
	c9.4,0,17.7,3.2,24.2,10.1c7.7,8.1,15.2,16.3,22.7,24.5l2-1.3c0.4-5.9,0.8-11.7,1.1-17.6c0.2-3.7,0.2-7.3,0.7-11
	c1.2-10.2,10.5-17.6,20.8-16.3c0,0,0.1,0,0.1,0c10.1,1,17.7,9.8,17.1,19.9c-1.5,23.1-3.1,46.2-4.8,69.3c-0.3,4-1.1,7.9-2.5,11.6
	c-2.7,7.4-8.2,11.7-16,12.5c-8,0.8-14.2-2.4-18.7-9.1c-3.8-5.6-7.8-11-11.8-16.5l-1.4,0.3v6.1c0,78,0,156,0,234
	c0,6.6-0.5,13-4.3,18.7c-6.3,9.5-18.1,13.7-29,10.4c-10.7-3.3-18-13.2-18-24.4c-0.1-40.3-0.1-80.7,0-121v-6.1H174v5.8
	c0,40.2,0,80.3,0,120.5c0,10.8-4.8,19-14.6,23.7c-9.6,4.6-18.9,3.4-27.2-3.1c-6.7-5.3-9.5-12.4-9.4-21c0.1-75.6,0.1-151.3,0-227
	L122.8,222.7z"/>
<path d="M182.7,132c-28.6-0.1-51.7-23.3-51.6-51.9s23.3-51.7,51.9-51.6s51.7,23.3,51.6,51.9c0,0,0,0.1,0,0.1
	c0.1,28.4-22.9,51.5-51.3,51.6C183,132,182.8,132,182.7,132z"/>
<path d="M244,100c-0.3-6.2,1.8-7.9,6.9-6.4c0.2,0,0.3,0.1,0.5,0.1c12.6,7,23.9,3.7,35.6-3.3c12.2-7.3,25.4-13.2,38.1-19.6
	c5.4-2.8,8-1.5,9,4.5c2.3,13.3,4.5,26.6,6.7,39.8c1,5.9-1.3,8.2-7,7.4c-19.9-2.8-39.8-5.7-59.8-8.3c-2.4-0.1-4.7,0.5-6.7,1.8
	c-3.9,2.5-7.4,5.7-11.1,8.5c-4.2,3.1-7.4,2.2-8.4-2.8C246.2,114.4,245.1,106.8,244,100z"/>
<path d="M344.4,91.8l78.8-10.8c0.3,1.6,0.6,3,0.8,4.2c-0.6,0.4-0.8,0.7-1.1,0.7c-24.7,3.4-49.4,6.8-74.1,10.3
	C345.9,96.6,343.7,96.6,344.4,91.8z"/>
<path d="M410.5,40.8c0.7,1.1,1.5,2.3,2.4,3.8l-69.3,40.9c-2.1-2.4-2.8-4.2,0.4-6c21.8-12.8,43.5-25.6,65.2-38.5
	C409.6,40.9,410.1,40.8,410.5,40.8z"/>
<path d="M344.7,106.8l1.5-4.8l77,21c-0.4,1.6-0.6,2.9-1.1,4.8L344.7,106.8z"/>
</svg>
